<svg width="24" height="21" viewBox="0 0 24 21" fill="none" xmlns="http://www.w3.org/2000/svg">
<path d="M23.2961 0H18.9748C18.1498 0 17.328 0.621848 17.1038 1.41572L15.9365 5.54727C15.8029 5.5101 15.6625 5.48861 15.5162 5.48861H1.55459C1.1103 5.48861 0.68845 5.67293 0.397235 5.99427C0.106019 6.31552 -0.0358819 6.75343 0.00775824 7.19555L0.658888 13.7958C0.745699 14.6755 1.50607 15.3645 2.39004 15.3645H13.2263C14.0547 15.3645 14.873 14.7381 15.0892 13.9385L16.4466 8.91901L18.4585 1.79854C18.5131 1.60492 18.7737 1.40784 18.9748 1.40784H23.2961C23.6848 1.40784 24 1.09279 24 0.703967C24 0.315147 23.6848 0 23.2961 0ZM13.7303 13.571C13.6787 13.7621 13.4242 13.9568 13.2263 13.9568H2.38995C2.23547 13.9568 2.07499 13.8114 2.05978 13.6576L1.40865 7.05731C1.40387 7.00841 1.41475 6.96768 1.44037 6.93953C1.46599 6.91128 1.50541 6.89636 1.5545 6.89636H15.5161C15.523 6.89636 15.529 6.89664 15.5343 6.89702C15.5333 6.90227 15.5319 6.90809 15.5302 6.91466L13.7303 13.571Z" fill="#000002"/>
<path d="M4.4443 16.1661C3.23711 16.1661 2.25488 17.1483 2.25488 18.3555C2.25488 19.5627 3.23702 20.5448 4.4443 20.5448C5.65149 20.5448 6.63363 19.5627 6.63363 18.3555C6.63363 17.1483 5.65159 16.1661 4.4443 16.1661ZM4.4443 19.137C4.01334 19.137 3.66263 18.7864 3.66263 18.3555C3.66263 17.9245 4.01325 17.5739 4.4443 17.5739C4.87526 17.5739 5.22588 17.9245 5.22588 18.3555C5.22588 18.7864 4.87535 19.137 4.4443 19.137Z" fill="#000002"/>
<path d="M11.3866 16.1661C10.1794 16.1661 9.19727 17.1483 9.19727 18.3555C9.19727 19.5627 10.1794 20.5448 11.3866 20.5448C12.5938 20.5448 13.576 19.5627 13.576 18.3555C13.576 17.1483 12.5938 16.1661 11.3866 16.1661ZM11.3866 19.137C10.9556 19.137 10.605 18.7864 10.605 18.3555C10.605 17.9245 10.9556 17.5739 11.3866 17.5739C11.8175 17.5739 12.1683 17.9245 12.1683 18.3555C12.1683 18.7864 11.8175 19.137 11.3866 19.137Z" fill="#000002"/>
</svg>
