<svg width="20" height="20" viewBox="0 0 20 20" fill="none" xmlns="http://www.w3.org/2000/svg">
<path d="M9.59961 2.5C12.4193 2.5 14.7 4.77993 14.7002 7.59961C14.7002 8.54829 14.3812 9.64896 13.8691 10.792C13.3599 11.9287 12.6759 13.0722 11.9854 14.0957C11.2959 15.1176 10.6054 16.0115 10.0869 16.6504C9.89986 16.8809 9.73313 17.0761 9.59961 17.2334C9.46615 17.0761 9.30018 16.8807 9.11328 16.6504C8.5948 16.0115 7.90433 15.1176 7.21484 14.0957C6.52428 13.0722 5.84028 11.9287 5.33105 10.792C4.81901 9.64894 4.5 8.54831 4.5 7.59961C4.50021 4.78006 6.78006 2.50021 9.59961 2.5ZM9.59961 5.09961C8.93671 5.09971 8.30078 5.36328 7.83203 5.83203C7.36328 6.30078 7.09971 6.93671 7.09961 7.59961C7.09961 8.26265 7.36319 8.89932 7.83203 9.36816C8.30077 9.83685 8.93676 10.0995 9.59961 10.0996C10.2627 10.0996 10.8993 9.837 11.3682 9.36816C11.837 8.89932 12.0996 8.26265 12.0996 7.59961C12.0995 6.93675 11.8369 6.30077 11.3682 5.83203C10.8993 5.36319 10.2627 5.09961 9.59961 5.09961Z" stroke="#1D1D1B"/>
</svg>
